<?xml version="1.0" encoding="UTF-8" standalone="no"?>
<!-- Generator: Adobe Illustrator 17.0.0, SVG Export Plug-In . SVG Version: 6.00 Build 0)  -->

<svg
   version="1.1"
   id="Ebene_1"
   x="0px"
   y="0px"
   width="1673.5386"
   height="1228.1705"
   viewBox="0 0 1673.5386 1228.1705"
   enable-background="new 0 0 1760 1544.999"
   xml:space="preserve"
   xmlns="http://www.w3.org/2000/svg"
   xmlns:svg="http://www.w3.org/2000/svg"><defs
   id="defs19" />
<g
   id="x9KXgM_1_"
   transform="translate(-42.971789,-42.845296)">
	<path
   d="m 880.001,1271 c -224.498,0 -448.997,0.059 -673.495,-0.069 -30.755,-0.017 -60.228,-6.352 -87.235,-21.663 -40.475,-22.945 -63.312,-58.551 -72.021,-103.474 -2.708,-13.97 -4.058,-28.426 -4.076,-42.662 -0.257,-198.331 -0.236,-396.664 -0.119,-594.995 0.022,-37.863 8.668,-73.615 28.727,-106.106 23.711,-38.407 58.041,-63.463 99.901,-79.05 22.479,-8.37 46.074,-11.646 69.453,-16.03 34.829,-6.53 69.899,-12.105 104.338,-20.305 41.281,-9.83 78.854,-28.266 111.513,-55.876 25.449,-21.516 45.06,-47.473 59.121,-77.695 24.986,-53.703 66.919,-86.697 124.003,-101.042 24.677,-6.201 49.787,-8.967 75.188,-9.006 55.499,-0.085 111.003,-0.415 166.497,0.104 40.229,0.376 79.683,5.963 116.763,22.847 39.695,18.075 67.244,47.526 82.528,88.479 20.788,55.702 61.202,91.091 115.99,111.454 30.137,11.201 61.48,17.056 93.249,21.108 37.324,4.76 74.622,9.718 111.933,14.58 39.458,5.142 78.915,10.282 118.375,15.404 27.881,3.619 55.905,6.372 82.426,16.822 62.133,24.481 98.881,69.654 109.878,135.381 2.433,14.541 3.399,29.486 3.415,44.247 0.218,195.498 0.148,390.997 0.142,586.495 -10e-4,29.785 -4.132,58.756 -17.317,85.877 -21.209,43.63 -56.439,69.618 -103.168,79.883 -15.64,3.436 -31.991,5.052 -48.021,5.075 -222.662,0.32 -445.325,0.217 -667.988,0.217 z M 991.74,461 c -2.478,0 -4.614,0 -6.749,0 -245.492,0 -490.984,-0.007 -736.476,0.042 -6.314,0.001 -12.688,0.186 -18.932,1.035 -28.809,3.92 -51.273,17.648 -65.678,43.428 -10.193,18.243 -13.662,38.173 -13.675,58.696 -0.114,171.494 -0.158,342.989 0.024,514.483 0.032,29.814 12.538,53.774 37.142,70.935 18.595,12.97 39.748,17.221 62.022,17.221 270.158,0 540.316,-10e-4 810.474,-0.017 4.661,0 9.327,-0.12 13.983,-0.342 21.958,-1.046 41.838,-7.766 58.547,-22.376 22.8,-19.935 31.384,-45.985 31.394,-75.425 0.046,-143.495 0.021,-286.991 0.021,-430.486 0,-1.911 0,-3.823 0,-5.736 C 1075.415,633.683 993.104,561.622 991.74,461 Z"
   id="path1" /><path
   fill="#ffffff"
   d="m 991.74,461 c 1.364,100.622 83.675,172.683 172.096,171.457 0,1.914 0,3.825 0,5.736 0,143.495 0.025,286.991 -0.021,430.486 -0.01,29.44 -8.594,55.49 -31.394,75.425 -16.709,14.609 -36.588,21.329 -58.547,22.376 -4.656,0.222 -9.322,0.342 -13.983,0.342 -270.158,0.016 -540.316,0.013 -810.474,0.017 -22.274,0 -43.427,-4.251 -62.022,-17.221 -24.605,-17.161 -37.111,-41.121 -37.142,-70.935 -0.182,-171.494 -0.138,-342.989 -0.024,-514.483 0.014,-20.523 3.482,-40.453 13.675,-58.696 14.405,-25.78 36.869,-39.508 65.678,-43.428 6.244,-0.85 12.618,-1.034 18.932,-1.035 C 494.007,460.992 739.499,461 984.991,461 c 2.136,0 4.271,0 6.749,0 z m -304.682,632.594 c 0,-187.093 0,-373.943 0,-560.66 -63.509,0 -126.568,0 -189.748,0 -10.97,85.654 -21.887,170.89 -32.803,256.126 -0.427,-0.015 -0.854,-0.029 -1.281,-0.044 -12.228,-85.415 -24.457,-170.829 -36.681,-256.212 -63.695,0 -126.455,0 -189.244,0 0,187.06 0,373.809 0,560.716 42.533,0 84.764,0 127.61,0 0,-121.12 0,-241.924 0,-362.729 0.289,-0.012 0.577,-0.023 0.866,-0.035 17.487,120.864 34.973,241.728 52.478,362.714 30.427,0 60.469,0 90.735,0 16.448,-122.697 32.851,-245.065 49.255,-367.432 0.469,0.02 0.938,0.04 1.407,0.06 0,122.443 0,244.886 0,367.496 43.027,0 85.118,0 127.406,0 z m 68.218,-560.807 c 0,187.039 0,373.785 0,560.759 108.507,0 216.737,0 325.206,0 0,-37.5 0,-74.708 0,-112.564 -59.89,0 -119.429,0 -179.396,0 0,-149.743 0,-298.839 0,-448.195 -48.856,0 -97.277,0 -145.81,0 z"
   id="path14" /><path
   d="m 687.058,1093.594 c -42.288,0 -84.379,0 -127.407,0 0,-122.61 0,-245.053 0,-367.496 -0.469,-0.02 -0.938,-0.04 -1.407,-0.06 -16.403,122.367 -32.807,244.735 -49.255,367.432 -30.266,0 -60.307,0 -90.735,0 -17.504,-120.986 -34.991,-241.85 -52.478,-362.714 -0.289,0.012 -0.577,0.023 -0.866,0.035 0,120.805 0,241.61 0,362.729 -42.846,0 -85.077,0 -127.61,0 0,-186.907 0,-373.656 0,-560.716 62.788,0 125.549,0 189.244,0 12.224,85.383 24.452,170.797 36.681,256.212 0.427,0.015 0.854,0.029 1.281,0.044 10.917,-85.236 21.833,-170.472 32.803,-256.126 63.18,0 126.239,0 189.748,0 10e-4,186.717 10e-4,373.567 10e-4,560.66 z"
   id="path18" /><path
   d="m 755.276,532.787 c 48.533,0 96.954,0 145.81,0 0,149.356 0,298.452 0,448.195 59.967,0 119.506,0 179.396,0 0,37.855 0,75.064 0,112.564 -108.469,0 -216.7,0 -325.206,0 0,-186.974 0,-373.719 0,-560.759 z"
   id="path19" />
</g>
<circle
   fill="#ff0000"
   cx="1121.2412"
   cy="418.3187"
   r="81.568001"
   id="circle19" />
</svg>
