<?xml version="1.0" encoding="UTF-8" standalone="no"?>
<!-- Created with Inkscape (http://www.inkscape.org/) -->

<svg
   xmlns:dc="http://purl.org/dc/elements/1.1/"
   xmlns:cc="http://creativecommons.org/ns#"
   xmlns:rdf="http://www.w3.org/1999/02/22-rdf-syntax-ns#"
   xmlns:svg="http://www.w3.org/2000/svg"
   xmlns="http://www.w3.org/2000/svg"
   xmlns:xlink="http://www.w3.org/1999/xlink"
   version="1.1"
   width="329"
   height="101"
   id="svg6579">
  <defs
     id="defs6581">
    <linearGradient
       id="linearGradient3243-9-5-7">
      <stop
         id="stop3245-4-8-4"
         style="stop-color:#0000ff;stop-opacity:1"
         offset="0" />
      <stop
         id="stop3247-8-7-5"
         style="stop-color:#e2e9ee;stop-opacity:1"
         offset="1" />
    </linearGradient>
    <linearGradient
       id="linearGradient5228-2-6-5">
      <stop
         id="stop5230-9-0-4"
         style="stop-color:#6a6aff;stop-opacity:1"
         offset="0" />
      <stop
         id="stop5232-3-4-7"
         style="stop-color:#d5e0e7;stop-opacity:1"
         offset="1" />
    </linearGradient>
    <linearGradient
       x1="-1340"
       y1="-3644.1377"
       x2="-1340"
       y2="-3107.3174"
       id="linearGradient6971"
       xlink:href="#linearGradient3243-9-5-7"
       gradientUnits="userSpaceOnUse"
       gradientTransform="matrix(0.4115578,0,0,0.380101,751.87018,2597.8804)" />
    <linearGradient
       x1="-1705"
       y1="-2927.6377"
       x2="-1335"
       y2="-2927.6377"
       id="linearGradient6973"
       xlink:href="#linearGradient5228-2-6-5"
       gradientUnits="userSpaceOnUse"
       gradientTransform="matrix(0.4115578,0,0,0.380101,751.87018,2476.2481)" />
    <linearGradient
       x1="-975"
       y1="-2927.6377"
       x2="-1345"
       y2="-2927.6377"
       id="linearGradient6975"
       xlink:href="#linearGradient5228-2-6-5"
       gradientUnits="userSpaceOnUse"
       gradientTransform="matrix(0.4115578,0,0,0.380101,751.87018,2476.2481)" />
    <linearGradient
       x1="610.63763"
       y1="1359.1296"
       x2="462.47693"
       y2="1373.837"
       id="linearGradient6977"
       xlink:href="#linearGradient3243-9-5-7"
       gradientUnits="userSpaceOnUse"
       gradientTransform="matrix(1.0005174,0,0,1.0017007,-14.555863,8.7773918)" />
    <linearGradient
       x1="541.57196"
       y1="1282.4214"
       x2="689.73273"
       y2="1297.1287"
       id="linearGradient6979"
       xlink:href="#linearGradient3243-9-5-7"
       gradientUnits="userSpaceOnUse"
       gradientTransform="matrix(1.0005174,0,0,1.0017007,-241.92923,85.616159)" />
    <linearGradient
       x1="-1340"
       y1="-3644.1377"
       x2="-1340"
       y2="-3107.3174"
       id="linearGradient6981"
       xlink:href="#linearGradient3243-9-5-7"
       gradientUnits="userSpaceOnUse"
       gradientTransform="matrix(0.4115578,0,0,0.380101,751.87018,2597.8804)" />
    <linearGradient
       x1="-1705"
       y1="-2927.6377"
       x2="-1335"
       y2="-2927.6377"
       id="linearGradient6983"
       xlink:href="#linearGradient5228-2-6-5"
       gradientUnits="userSpaceOnUse"
       gradientTransform="matrix(0.4115578,0,0,0.380101,751.87018,2476.2481)" />
    <linearGradient
       x1="-975"
       y1="-2927.6377"
       x2="-1345"
       y2="-2927.6377"
       id="linearGradient6985"
       xlink:href="#linearGradient5228-2-6-5"
       gradientUnits="userSpaceOnUse"
       gradientTransform="matrix(0.4115578,0,0,0.380101,751.87018,2476.2481)" />
  </defs>
  <metadata
     id="metadata6584">
    <rdf:RDF>
      <cc:Work
         rdf:about="">
        <dc:format>image/svg+xml</dc:format>
        <dc:type
           rdf:resource="http://purl.org/dc/dcmitype/StillImage" />
        <dc:title></dc:title>
      </cc:Work>
    </rdf:RDF>
  </metadata>
  <g
     transform="translate(-193.12722,-443.74651)"
     id="layer1">
    <g
       transform="matrix(1.3333335,0,0,1.3333335,1383.195,1112.727)"
       id="g3857-9-6">
      <g
         transform="scale(1.0488088,0.9534626)"
         id="text2815-6-86-8"
         style="font-size:47.25738144px;font-style:normal;font-weight:normal;fill:#ff6600;fill-opacity:1;stroke:none;font-family:Swis721 Lt BT">
        <path
           d="m -785.50653,-487.06917 7.38281,0 c 3.40623,2e-5 5.85154,-0.54685 7.33594,-1.64062 1.48435,-1.10935 2.22654,-2.89842 2.22656,-5.36719 -2e-5,-2.34372 -0.66408,-4.06247 -1.99219,-5.15625 -1.32814,-1.10934 -3.39845,-1.66403 -6.21093,-1.66406 l -8.74219,0 0,13.82812 m -3.16406,17.85938 0,-34.52344 12.04687,0 c 3.76561,4e-5 6.59373,0.81254 8.48438,2.4375 1.8906,1.62503 2.83591,4.04691 2.83593,7.26563 -2e-5,3.32814 -1.06252,5.8047 -3.1875,7.42968 -2.10939,1.6094 -5.33595,2.41408 -9.67968,2.41407 l -7.33594,0 0,14.97656 -3.16406,0"
           id="path4616"
           style="fill:#ff6600" />
        <path
           d="m -762.01472,-499.39729 0,-4.33594 2.85937,0 0,4.33594 -2.85937,0 m 0,30.1875 0,-24.91406 2.85937,0 0,24.91406 -2.85937,0"
           id="path4618"
           style="fill:#ff6600;font-family:Swis721 Lt BT" />
        <path
           d="m -756.84755,-469.20979 8.74218,-12.77344 -8.36718,-12.14062 3.60937,0 6.53906,9.9375 6.42188,-9.9375 3.49219,0 -8.15625,12.09375 9.07031,12.82031 -3.63281,0 -7.14844,-10.57031 -7.125,10.57031 -3.44531,0"
           id="path4620"
           style="fill:#ff6600;font-family:Swis721 Lt BT" />
        <path
           d="m -733.42606,-469.20979 0,-34.52344 3.25782,0 0,34.52344 -3.25782,0"
           id="path4622"
           style="fill:#ff6600;font-family:Swis721 Lt BT" />
        <path
           d="m -725.92228,-469.20979 0,-24.91406 2.78907,0 0,3.98437 c 0.93749,-1.53123 2.09374,-2.67966 3.46875,-3.44531 1.37499,-0.78123 2.96873,-1.17185 4.78125,-1.17188 1.71873,3e-5 3.22654,0.30472 4.52343,0.91407 1.29686,0.6094 2.28905,1.47658 2.97657,2.60156 0.35935,0.57815 0.61716,1.28127 0.77343,2.10937 0.15623,0.81252 0.23436,2.15627 0.23438,4.03125 l 0,0.72657 0,15.16406 -2.97656,0 0,-15.44531 c -2e-5,-2.92186 -0.45315,-4.89842 -1.35938,-5.92969 -0.89064,-1.04685 -2.46876,-1.57029 -4.73437,-1.57031 -2.32814,2e-5 -4.17189,0.74221 -5.53125,2.22656 -1.34376,1.46877 -2.01563,3.47658 -2.01563,6.02344 l 0,14.69531 -2.92969,0"
           id="path4624"
           style="fill:#ff6600;font-family:Swis721 Lt BT" />
        <path
           d="m -703.08672,-476.9676 2.88282,0 c 0.0781,1.71875 0.72655,3.11719 1.94531,4.19531 1.23437,1.0625 2.81249,1.59375 4.73437,1.59375 2.07812,0 3.71093,-0.40625 4.89844,-1.21875 1.20311,-0.82812 1.80467,-1.94531 1.80469,-3.35156 -2e-5,-2.01562 -2.21095,-3.55468 -6.63281,-4.61719 -0.0625,-0.0156 -0.10158,-0.0234 -0.11719,-0.0234 -3.56251,-0.85936 -5.95313,-1.80467 -7.17188,-2.83594 -1.20312,-1.03123 -1.80469,-2.46873 -1.80468,-4.3125 -10e-6,-2.1406 0.78906,-3.87497 2.36718,-5.20312 1.59375,-1.34373 3.66406,-2.0156 6.21094,-2.01563 2.79686,3e-5 5.02342,0.70315 6.67969,2.10938 1.65623,1.39065 2.57029,3.32814 2.74219,5.8125 l -2.92969,0 c -0.12502,-1.68748 -0.75783,-2.99998 -1.89844,-3.9375 -1.14064,-0.9531 -2.68751,-1.42966 -4.64062,-1.42969 -1.70314,3e-5 -3.06251,0.39065 -4.07813,1.17188 -1.01563,0.78127 -1.52344,1.81252 -1.52344,3.09375 0,2.21876 2.26562,3.85939 6.79688,4.92187 0.59374,0.14064 1.03905,0.2422 1.33594,0.30469 2.84373,0.70314 4.82029,1.57814 5.92968,2.625 1.10936,1.04688 1.66405,2.51563 1.66407,4.40625 -2e-5,2.10938 -0.87502,3.82813 -2.625,5.15625 -1.7344,1.32812 -4.02346,1.99219 -6.86719,1.99219 -2.89063,0 -5.21094,-0.76563 -6.96094,-2.29688 -1.75,-1.53124 -2.66406,-3.57812 -2.74219,-6.14062"
           id="path4626"
           style="fill:#ff6600;font-family:Swis721 Lt BT" />
        <path
           d="m -680.0871,-499.39729 0,-4.33594 2.85938,0 0,4.33594 -2.85938,0 m 0,30.1875 0,-24.91406 2.85938,0 0,24.91406 -2.85938,0"
           id="path4628"
           style="fill:#ff6600;font-family:Swis721 Lt BT" />
        <path
           d="m -670.56403,-481.63167 c -10e-6,3.29689 0.74218,5.89064 2.22656,7.78125 1.49999,1.87501 3.55468,2.81251 6.16406,2.8125 2.67186,10e-6 4.74998,-0.92968 6.23438,-2.78906 1.48435,-1.85937 2.22654,-4.46093 2.22656,-7.80469 -2e-5,-3.35935 -0.74221,-5.96091 -2.22656,-7.80468 -1.46877,-1.84373 -3.54689,-2.7656 -6.23438,-2.76563 -2.68751,3e-5 -4.75782,0.91409 -6.21094,2.74219 -1.45313,1.82814 -2.17969,4.43752 -2.17968,7.82812 m 19.5,-12.49218 0,23.625 c -3e-5,3.79687 -1.00003,6.66405 -3,8.60156 -1.9844,1.93749 -4.9219,2.90624 -8.8125,2.90625 -2.90626,-10e-6 -5.25782,-0.65626 -7.05469,-1.96875 -1.78125,-1.29688 -2.75782,-3.07032 -2.92969,-5.32031 l 2.95313,0 c 0.17187,1.51562 0.85155,2.67968 2.03906,3.49218 1.20312,0.8125 2.85155,1.21875 4.94531,1.21875 2.99999,0 5.24998,-0.74219 6.75,-2.22656 1.51561,-1.48438 2.27342,-3.6875 2.27344,-6.60937 l 0,-3.07032 c -1.01565,1.65626 -2.25002,2.89844 -3.70313,3.72657 -1.43751,0.8125 -3.10157,1.21875 -4.99218,1.21875 -3.42189,0 -6.1172,-1.16406 -8.08594,-3.49219 -1.96875,-2.34375 -2.95313,-5.54687 -2.95313,-9.60938 0,-4.03123 0.99219,-7.22654 2.97657,-9.58593 1.99999,-2.35935 4.68749,-3.53904 8.0625,-3.53907 1.92186,3e-5 3.60154,0.41409 5.03906,1.24219 1.43748,0.82815 2.6406,2.06252 3.60937,3.70313 l 0,-4.3125 2.88282,0"
           id="path4630"
           style="fill:#ff6600;font-family:Swis721 Lt BT" />
        <path
           d="m -647.33003,-469.20979 0,-34.52344 2.92969,0 0,13.5 c 0.92186,-1.48435 2.0703,-2.60935 3.44531,-3.375 1.37499,-0.7656 2.96092,-1.14841 4.75781,-1.14844 1.65623,3e-5 3.14061,0.31253 4.45313,0.9375 1.31248,0.62503 2.31247,1.4844 3,2.57813 0.35935,0.59377 0.61716,1.32033 0.77343,2.17969 0.15623,0.85939 0.23435,2.42189 0.23438,4.6875 l 0,15.16406 -2.92969,0 0,-15.11719 c -2e-5,-3.10935 -0.44533,-5.18748 -1.33594,-6.23437 -0.89064,-1.06248 -2.47658,-1.59373 -4.75781,-1.59375 -2.32814,2e-5 -4.18751,0.75002 -5.57812,2.25 -1.37501,1.48439 -2.06251,3.48439 -2.0625,6 l 0,14.69531 -2.92969,0"
           id="path4632"
           style="fill:#ff6600;font-family:Swis721 Lt BT" />
        <path
           d="m -620.56662,-501.27229 0,7.14844 4.61719,0 0,2.34375 -4.61719,0 0,18.16406 c -1e-5,1.0625 0.13281,1.76563 0.39844,2.10937 0.26561,0.34376 0.74218,0.51563 1.42969,0.51563 0.29686,0 0.6328,-0.0234 1.00781,-0.0703 0.37499,-0.0625 0.96092,-0.17969 1.75781,-0.35157 l 0.0234,2.29688 c -0.70314,0.1875 -1.34376,0.32031 -1.92188,0.39844 -0.57813,0.0937 -1.12501,0.14062 -1.64062,0.14062 -1.43751,0 -2.45313,-0.35937 -3.04688,-1.07812 -0.59375,-0.73438 -0.89063,-2.05469 -0.89062,-3.96094 l 0,-18.16406 -3.39844,0 0,-2.34375 3.39844,0 0,-7.14844 2.88281,0"
           id="path4634"
           style="fill:#ff6600;font-family:Swis721 Lt BT" />
      </g>
      <g
         transform="matrix(0.1875,0,0,0.1875,-948.24329,-709.30723)"
         id="g2831-1-2-9">
        <path
           d="m 299.92285,1247.8819 148.23744,-137.0691 148.23738,137.0691 0,122.3366 -148.23738,137.069 -148.23744,-137.069 0,-122.3366 z"
           id="path2833-5-8-2"
           style="fill:#ffffff;fill-opacity:1;fill-rule:evenodd;stroke:none" />
        <path
           d="m 299.9229,1247.8819 0,122.3366"
           id="path2835-9-3-0"
           style="fill:none;stroke:#6a6aff;stroke-width:3.52519894;stroke-linecap:round;stroke-linejoin:miter;stroke-miterlimit:4;stroke-opacity:1;stroke-dasharray:none" />
        <path
           d="m 596.39772,1247.8819 0,122.3366"
           id="path2837-8-0-6"
           style="fill:none;stroke:#6a6aff;stroke-width:3.52519894;stroke-linecap:round;stroke-linejoin:miter;stroke-miterlimit:4;stroke-opacity:1;stroke-dasharray:none" />
        <g
           transform="matrix(1.0005174,0,0,1.0017007,247.6738,72.984062)"
           id="g2839-4-1-8">
          <path
             d="M 200.38286,1158.1956 52.22208,1295.032 200.38286,1431.8683 348.54358,1295.032 200.38286,1158.1956 z"
             id="path2841-8-7-9"
             style="fill:url(#linearGradient6971);fill-opacity:1;fill-rule:evenodd;stroke:none" />
          <path
             d="m 52.22208,1295.032 148.16078,136.8363"
             id="path2843-1-8-2"
             style="fill:none;stroke:url(#linearGradient6973);stroke-width:3.52129436;stroke-linecap:round;stroke-linejoin:miter;stroke-miterlimit:4;stroke-opacity:1;stroke-dasharray:none" />
          <path
             d="M 348.54358,1295.032 200.38286,1431.8683"
             id="path2845-0-9-6"
             style="fill:none;stroke:url(#linearGradient6975);stroke-width:3.52129436;stroke-linecap:round;stroke-linejoin:miter;stroke-miterlimit:4;stroke-opacity:1;stroke-dasharray:none" />
          <path
             d="M 52.22208,1295.032 200.38286,1158.1956"
             id="path2847-3-1-6"
             style="fill:none;stroke:#6a6aff;stroke-width:3.52129436;stroke-linecap:round;stroke-linejoin:miter;stroke-miterlimit:4;stroke-opacity:1;stroke-dasharray:none" />
          <path
             d="M 348.54358,1295.032 200.38286,1158.1956"
             id="path2849-0-5-4"
             style="fill:none;stroke:#6a6aff;stroke-width:3.52129436;stroke-linecap:round;stroke-linejoin:miter;stroke-miterlimit:4;stroke-opacity:1;stroke-dasharray:none" />
        </g>
        <path
           d="m 448.16034,1507.2875 0,-122.3366 148.23738,-137.069 0,122.3366 -148.23738,137.069 z"
           id="path2851-4-4-9"
           style="fill:url(#linearGradient6977);fill-opacity:1;fill-rule:evenodd;stroke:none" />
        <path
           d="m 299.9229,1247.8819 0,122.3366 148.23744,137.069 0,-122.3366 -148.23744,-137.069 z"
           id="path2853-4-9-5"
           style="fill:url(#linearGradient6979);fill-opacity:1;fill-rule:evenodd;stroke:none" />
        <path
           d="m 448.16034,1384.9509 0,122.3366"
           id="path2855-4-2-0"
           style="fill:#a0b4d1;fill-opacity:1;fill-rule:evenodd;stroke:#d5dfe6;stroke-width:3.52519894;stroke-linecap:round;stroke-linejoin:miter;stroke-miterlimit:4;stroke-opacity:1;stroke-dasharray:none" />
        <g
           transform="matrix(1.0005174,0,0,1.0017007,247.6738,-49.352566)"
           id="g2857-4-5-4">
          <path
             d="M 200.38286,1158.1956 52.22208,1295.032 200.38286,1431.8683 348.54358,1295.032 200.38286,1158.1956 z"
             id="path2859-7-7-8"
             style="fill:url(#linearGradient6981);fill-opacity:1;fill-rule:evenodd;stroke:none" />
          <path
             d="m 52.22208,1295.032 148.16078,136.8363"
             id="path2861-6-4-7"
             style="fill:none;stroke:url(#linearGradient6983);stroke-width:3.52129436;stroke-linecap:round;stroke-linejoin:miter;stroke-miterlimit:4;stroke-opacity:1;stroke-dasharray:none" />
          <path
             d="M 348.54358,1295.032 200.38286,1431.8683"
             id="path2863-3-9-1"
             style="fill:none;stroke:url(#linearGradient6985);stroke-width:3.52129436;stroke-linecap:round;stroke-linejoin:miter;stroke-miterlimit:4;stroke-opacity:1;stroke-dasharray:none" />
          <path
             d="M 52.22208,1295.032 200.38286,1158.1956"
             id="path2865-1-9-7"
             style="fill:none;stroke:#6a6aff;stroke-width:3.52129436;stroke-linecap:round;stroke-linejoin:miter;stroke-miterlimit:4;stroke-opacity:1;stroke-dasharray:none" />
          <path
             d="M 348.54358,1295.032 200.38286,1158.1956"
             id="path2867-7-4-2"
             style="fill:none;stroke:#6a6aff;stroke-width:3.52129436;stroke-linecap:round;stroke-linejoin:miter;stroke-miterlimit:4;stroke-opacity:1;stroke-dasharray:none" />
        </g>
      </g>
    </g>
  </g>
</svg>
